<?xml version="1.0" encoding="utf-8"?>
<!-- Generator: Adobe Illustrator 16.0.0, SVG Export Plug-In . SVG Version: 6.00 Build 0)  -->
<!DOCTYPE svg PUBLIC "-//W3C//DTD SVG 1.1//EN" "http://www.w3.org/Graphics/SVG/1.1/DTD/svg11.dtd">
<svg version="1.1" id="Layer_1" xmlns="http://www.w3.org/2000/svg" xmlns:xlink="http://www.w3.org/1999/xlink" x="0px" y="0px"
	 width="529.493px" height="466.021px" viewBox="-175.507 -154.469 529.493 466.021"
	 enable-background="new -175.507 -154.469 529.493 466.021" xml:space="preserve">
<rect x="-331.027" y="-341.724" fill="none" width="840.531" height="840.531"/>
<path fill="#36B4C6" d="M-131.406,299.916h12.422c5.729,0,11.669,0.212,16.639-3.134c4.971-3.348,7.996-8.424,7.996-14.479
	c0-5.938-2.914-11.883-8.426-14.584c-4.969-2.482-11.778-2.59-17.179-2.59h-11.452V299.916z M-131.406,260.266h8.968
	c5.506,0,9.938,0.322,14.585-3.028c4.647-3.348,6.048-7.45,6.048-13.072c0-5.291-2.053-10.479-6.693-13.394
	c-4.107-2.596-9.187-2.596-13.94-2.596h-8.968V260.266z M-136.594,304.778v-81.462h16.317c6.155,0,11.993,0.432,16.853,4.751
	c4.969,4.32,6.806,10.374,6.806,16.855c0,7.454-2.915,12.97-9.397,16.636c10.047,2.054,16.853,10.158,16.853,20.532
	c0,6.588-2.485,12.53-7.56,16.853c-5.729,4.862-11.777,5.835-19.019,5.835H-136.594z"/>
<path fill="#36B4C6" d="M-75.231,264.044c0,20.097,16.749,36.952,37.057,36.952c20.207,0,37.06-16.963,37.06-36.952
	c0-20.095-16.853-36.947-37.06-36.947C-58.484,227.095-75.231,243.949-75.231,264.044 M4.072,264.044
	c0,22.905-19.341,41.817-42.247,41.817c-22.902,0-42.244-18.912-42.244-41.817c0-22.9,19.231-41.805,42.244-41.805
	C-15.269,222.237,4.072,241.141,4.072,264.044"/>
<path fill="#36B4C6" d="M42.634,233.795l-15.992,39.327h31.873L42.634,233.795z M24.698,277.982l-10.915,26.794H8.491l34.143-84.166
	l34.032,84.166H71.37l-10.913-26.794H24.698z"/>
<polygon fill="#36B4C6" points="95.456,304.778 90.275,304.778 90.275,228.176 69.207,228.176 69.207,223.314 116.526,223.314 
	116.526,228.176 95.456,228.176 "/>
<path fill="#36B4C6" d="M138.886,290.949h2.594c19.552,0,27.117-10.807,27.117-26.905c0-17.719-9.076-26.902-27.117-26.902h-2.594
	V290.949z M123.006,223.316h22.687c23.553,0,39.329,17.607,39.329,40.835c0,22.901-16.206,40.627-39.436,40.627h-22.58V223.316z"/>
<path fill="#36B4C6" d="M223.148,245.032h-0.212l-8.97,29.602h19.343L223.148,245.032z M209.432,287.597l-6.699,17.179h-16.749
	l31.767-83.625h12.312l30.903,83.625h-16.964l-6.268-17.179H209.432z"/>
<polygon fill="#36B4C6" points="247.457,223.316 265.93,223.316 280.19,251.616 295.75,223.316 314.334,223.316 288.618,267.395 
	288.618,304.779 272.736,304.779 272.736,267.395 "/>
<path fill="#36B4C6" d="M333.911,194.723h-489.28c1.013,2.926,2.077,5.829,3.191,8.707H330.72
	C331.833,200.552,332.896,197.648,333.911,194.723"/>
<path fill="#36B4C6" d="M89.239-148.775c-142.644,0-258.278,115.635-258.278,258.278c0,24.554,3.438,48.309,9.843,70.809h27.041
	c1.555-6.575,5.962-16.547,18.218-26.221c18.438-14.556,50.963-20.344,50.963-20.344s3.98-11.152,11.372-15.258
	C-36.1,109.877,3.343,91.801,3.343,91.801c29.306-13.845,69.816-21.956,69.816-21.956s7.834-1.301,7.834,1.488
	c0,0.821,34.945,17.615,41.982,16.746c62.015-7.686,103.401-9.309,137.96-8.969c10.01,0.101,33.623,1.012,32.828,2.964
	c0,0-57.699,69.907-66.577,78.234c-5.868,5.495-16.346,13.659-34.464,20.005h144.951c6.405-22.502,9.843-46.255,9.843-70.809
	C347.517-33.14,231.882-148.775,89.239-148.775 M74.32,73.427l-18.724,4.251l32.923,19.069l23.686-5.425
	C112.205,91.322,75.693,73.567,74.32,73.427 M-32.135,117.74c1.104-6.629,54.677-32.623,81.702-38.11l32.105,19.328
	c0,0-106.735,24.527-108.944,24.305C-29.484,123.039-33.24,124.367-32.135,117.74 M72.896-58.936
	c81.536-37.771,85.707,18.439,85.707,18.439c18.316-31.492,55.506-3.12,55.506-3.12c-40.793-21.372-59.526,28.375-59.526,28.375
	C139.386-91.229,72.896-58.936,72.896-58.936 M190.678-11.753c26.09-24.17,38.15-1.995,38.15-1.995
	c11.035-15.07,30.469,0.284,30.469,0.284C237.052-27.495,228.073,0.54,228.073,0.54C218.325-32.422,190.678-11.753,190.678-11.753"
	/>
<rect x="-331.027" y="-341.724" fill="none" width="840.531" height="840.531"/>
</svg>
